<svg width="22.757812" height="25.599609" viewBox="0 0 22.7578 25.5996" fill="none" xmlns="http://www.w3.org/2000/svg" xmlns:xlink="http://www.w3.org/1999/xlink">
	<desc>
			Created with Pixso.
	</desc>
	<defs>
		<clipPath id="clip7_3829">
			<rect width="22.757975" height="25.599998" fill="white" fill-opacity="0"/>
		</clipPath>
	</defs>
	<rect width="22.757975" height="25.599998" fill="#FFFFFF" fill-opacity="0"/>
	<g clip-path="url(#clip7_3829)">
		<path d="M17.06 22.4C17.06 21.22 17.91 20.26 18.96 20.26C20.01 20.26 20.86 21.22 20.86 22.4C20.86 23.57 20.01 24.53 18.96 24.53C17.91 24.53 17.06 23.57 17.06 22.4Z" fill="#FFFFFF" fill-opacity="1.000000" fill-rule="evenodd"/>
		<path d="M6.63 22.4C6.63 21.22 7.48 20.26 8.53 20.26C9.58 20.26 10.43 21.22 10.43 22.4C10.43 23.57 9.58 24.53 8.53 24.53C7.48 24.53 6.63 23.57 6.63 22.4Z" fill="#FFFFFF" fill-opacity="1.000000" fill-rule="evenodd"/>
		<path d="M0 1.06C0 0.47 0.42 0 0.94 0L4.74 0C5.19 0 5.58 0.35 5.67 0.85L6.46 5.33L21.8 5.33C22.09 5.33 22.36 5.47 22.54 5.71C22.72 5.96 22.79 6.28 22.74 6.59L21.22 15.55C21.09 16.29 20.73 16.95 20.21 17.42C19.69 17.89 19.05 18.14 18.38 18.13L9.18 18.13C8.52 18.14 7.87 17.89 7.35 17.42C6.83 16.95 6.48 16.29 6.35 15.55L4.76 6.65C4.76 6.62 4.75 6.59 4.75 6.56L3.96 2.13L0.94 2.13C0.42 2.13 0 1.65 0 1.06L0 1.06ZM6.84 7.46L8.21 15.14C8.25 15.38 8.37 15.6 8.54 15.76C8.72 15.92 8.93 16 9.16 16L9.17 16L18.39 16L18.41 16C18.63 16 18.85 15.92 19.02 15.76C19.19 15.6 19.31 15.38 19.36 15.14L20.66 7.46L6.84 7.46Z" fill="#FFFFFF" fill-opacity="1.000000" fill-rule="evenodd"/>
	</g>
</svg>
