<svg width="22.899902" height="25.599609" viewBox="0 0 22.8999 25.5996" fill="none" xmlns="http://www.w3.org/2000/svg" xmlns:xlink="http://www.w3.org/1999/xlink">
	<desc>
			Created with Pixso.
	</desc>
	<defs>
		<clipPath id="clip7_3840">
			<rect width="22.899906" height="25.599998" fill="white" fill-opacity="0"/>
		</clipPath>
	</defs>
	<rect width="22.899906" height="25.599998" fill="#FFFFFF" fill-opacity="0"/>
	<g clip-path="url(#clip7_3840)">
		<path d="M11.44 11.73C12.39 11.73 13.31 11.41 14.1 10.83C14.88 10.24 15.49 9.41 15.85 8.44C16.21 7.46 16.31 6.39 16.12 5.35C15.94 4.32 15.49 3.37 14.82 2.62C14.15 1.88 13.3 1.37 12.38 1.16C11.45 0.96 10.49 1.06 9.62 1.47C8.75 1.87 8 2.55 7.48 3.43C6.95 4.31 6.67 5.34 6.67 6.39C6.68 7.81 7.18 9.16 8.07 10.16C8.97 11.16 10.18 11.73 11.44 11.73ZM11.44 3.2C12.01 3.2 12.56 3.38 13.04 3.73C13.51 4.09 13.87 4.59 14.09 5.17C14.31 5.75 14.36 6.4 14.25 7.02C14.14 7.64 13.87 8.21 13.47 8.66C13.07 9.11 12.56 9.41 12 9.53C11.45 9.66 10.87 9.59 10.35 9.35C9.83 9.11 9.38 8.7 9.06 8.17C8.75 7.65 8.58 7.03 8.58 6.39C8.58 5.55 8.88 4.73 9.42 4.13C9.96 3.53 10.69 3.2 11.44 3.2ZM2.86 23.46L2.86 19.2C2.86 17.78 3.36 16.43 4.26 15.43C5.15 14.43 6.36 13.86 7.63 13.86L15.26 13.86C16.53 13.86 17.74 14.43 18.63 15.43C19.53 16.43 20.03 17.78 20.03 19.2L20.03 23.46C20.03 23.74 19.93 24.02 19.75 24.22C19.57 24.42 19.33 24.53 19.08 24.53C18.83 24.53 18.58 24.42 18.4 24.22C18.22 24.02 18.12 23.74 18.12 23.46L18.12 19.2C18.12 18.35 17.82 17.53 17.29 16.93C16.75 16.33 16.02 16 15.26 16L7.63 16C6.87 16 6.14 16.33 5.6 16.93C5.07 17.53 4.77 18.35 4.77 19.2L4.77 23.46C4.77 23.74 4.66 24.02 4.49 24.22C4.31 24.42 4.06 24.53 3.81 24.53C3.56 24.53 3.32 24.42 3.14 24.22C2.96 24.02 2.86 23.74 2.86 23.46Z" fill="#FFFFFF" fill-opacity="1.000000" fill-rule="nonzero"/>
	</g>
</svg>
